<?xml version="1.0" encoding="UTF-8"?>
<svg xmlns="http://www.w3.org/2000/svg" viewBox="0 0 24 24" width="28" height="28" aria-hidden="true" focusable="false">
  <defs>
    <style> .t{fill:none;stroke:currentColor;stroke-width:1.4;stroke-linecap:round;stroke-linejoin:round} .d{fill:currentColor}</style>
  </defs>
  <circle class="t" cx="12" cy="12" r="9"/>
  <path class="t" d="M7.5 9.5c1.2-2 3.6-2.8 5.5-2 2 .9 2.8 3.2 1.6 5.1-.9 1.4-2.4 2.1-4 2-1.8-.1-3-1.6-2.9-3.4.1-1.6 1.6-2.9 3.2-2.7 1.2.2 2 .9 2.2 1.8"/>
  <path class="t" d="M9.2 14.8c.8.6 1.9.8 3 .5 1.6-.4 2.6-2 2.3-3.6-.3-1.6-1.9-2.6-3.5-2.3-1 .2-1.7.9-1.9 1.8-.2 1 .2 1.7.9 2.1"/>
  <circle class="d" cx="16.6" cy="9.6" r="0.7"/>
</svg>
